{
  "accessors": [
    {
      "bufferView": 2,
      "componentType": 5126,
      "count": 36779,
      "max": [
        0.5321316123008728,
        1.4161314964294434,
        0.4842286705970764
      ],
      "min": [
        -0.5321316123008728,
        0.0,
        -0.4842286705970764
      ],
      "type": "VEC3"
    },
    {
      "bufferView": 2,
      "byteOffset": 441348,
      "componentType": 5126,
      "count": 36779,
      "max": [
        0.9998651146888733,
        1.0,
        0.9998959898948669
      ],
      "min": [
        -0.9999758005142212,
        -0.9999251365661621,
        -0.9999078512191772
      ],
      "type": "VEC3"
    },
    {
      "bufferView": 1,
      "componentType": 5126,
      "count": 36779,
      "max": [
        0.991371214389801,
        0.9919716119766235
      ],
      "min": [
        3.232077915527043e-06,
        5.424022674560547e-05
      ],
      "type": "VEC2"
    },
    {
      "bufferView": 0,
      "componentType": 5125,
      "count": 172440,
      "type": "SCALAR"
    }
  ],
  "asset": {
    "extras": {
      "author": "davidgersch (https://sketchfab.com/davidgersch)",
      "license": "CC-BY-4.0 (http://creativecommons.org/licenses/by/4.0/)",
      "source": "https://sketchfab.com/3d-models/william-shakespeare-statue-35a011fbb46d4403a7a0235fa1cf85cd",
      "title": "William Shakespeare Statue"
    },
    "generator": "Sketchfab-14.35.0",
    "version": "2.0"
  },
  "bufferViews": [
    {
      "buffer": 0,
      "byteLength": 689760,
      "name": "floatBufferViews",
      "target": 34963
    },
    {
      "buffer": 0,
      "byteLength": 294232,
      "byteOffset": 689760,
      "byteStride": 8,
      "name": "floatBufferViews",
      "target": 34962
    },
    {
      "buffer": 0,
      "byteLength": 882696,
      "byteOffset": 983992,
      "byteStride": 12,
      "name": "floatBufferViews",
      "target": 34962
    }
  ],
  "buffers": [
    {
      "byteLength": 1866688,
      "uri": "scene.bin"
    }
  ],
  "images": [
    {
      "uri": "textures/Material_0_baseColor.jpeg"
    }
  ],
  "materials": [
    {
      "doubleSided": true,
      "name": "Material_0",
      "pbrMetallicRoughness": {
        "baseColorTexture": {
          "index": 0
        },
        "metallicFactor": 0.0
      }
    }
  ],
  "meshes": [
    {
      "name": "Node 172440_Material 0_0",
      "primitives": [
        {
          "attributes": {
            "NORMAL": 1,
            "POSITION": 0,
            "TEXCOORD_0": 2
          },
          "indices": 3,
          "material": 0,
          "mode": 4
        }
      ]
    }
  ],
  "nodes": [
    {
      "children": [
        1
      ],
      "matrix": [
        1.0,
        0.0,
        0.0,
        0.0,
        0.0,
        2.220446049250313e-16,
        -1.0,
        0.0,
        0.0,
        1.0,
        2.220446049250313e-16,
        0.0,
        0.0,
        0.0,
        0.0,
        1.0
      ],
      "name": "Sketchfab_model"
    },
    {
      "children": [
        2
      ],
      "matrix": [
        1.0,
        0.0,
        0.0,
        0.0,
        0.0,
        0.0,
        1.0,
        0.0,
        0.0,
        -1.0,
        0.0,
        0.0,
        0.0,
        0.0,
        0.0,
        1.0
      ],
      "name": "10072cce415b411594792ba4e65ebe21.fbx"
    },
    {
      "children": [
        3
      ],
      "name": "RootNode"
    },
    {
      "children": [
        4
      ],
      "name": "Node 172440"
    },
    {
      "mesh": 0,
      "name": "Node 172440_Material 0_0"
    }
  ],
  "samplers": [
    {
      "magFilter": 9729,
      "minFilter": 9987,
      "wrapS": 10497,
      "wrapT": 10497
    }
  ],
  "scene": 0,
  "scenes": [
    {
      "name": "Sketchfab_Scene",
      "nodes": [
        0
      ]
    }
  ],
  "textures": [
    {
      "sampler": 0,
      "source": 0
    }
  ]
}
